# xmcd
#
# Track frame offsets:
#	150
#	16812
#	33483
#	50707
#	73005
#	91968
#	106137
#	131519
#	148797
#	168366
#
# Disc length: 2460 seconds
# Revision: 0
# Processed by: cddbd v1.5.2PL0 Copyright (c) Steve Scherf et al.
# Submitted via: dBpowerAMP V12.0
#
DISCID=85099a0a
DTITLE=Trudy Lynn - Everything Comes With A Price
DYEAR=2015
DGENRE=Blues
TTITLE0=I'm Gonna' Latch On
TTITLE1=Fat Daddy
TTITLE2=Everything Comes With A Price
TTITLE3=Yesterday I Was Lonely
TTITLE4=My Alley Boogie
TTITLE5=Just A Little Kiss
TTITLE6=Messin' Around With The Blues
TTITLE7=I Let My Daddy Do That
TTITLE8=Ella Johnson's Blues
TTITLE9=Living Humble
EXTD=
EXTT0=
EXTT1=
EXTT2=
EXTT3=
EXTT4=
EXTT5=
EXTT6=
EXTT7=
EXTT8=
EXTT9=
PLAYORDER=
